<?xml version="1.0" encoding="UTF-8"?>
<svg xmlns="http://www.w3.org/2000/svg" width="704" height="531" viewBox="0 0 704 531" fill="none">
  <path d="M462.351 221.987H390.297V258.19H462.351V221.987Z" fill="#E6E6E6"></path>
  <path d="M504.786 89.4237C514.506 89.4237 522.386 81.5439 522.386 71.8237C522.386 62.1035 514.506 54.2237 504.786 54.2237C495.065 54.2237 487.186 62.1035 487.186 71.8237C487.186 81.5439 495.065 89.4237 504.786 89.4237Z" fill="#24285B"></path>
  <path opacity="0.45" d="M351.999 476.36C505.238 476.36 629.463 461.301 629.463 442.726C629.463 424.151 505.238 409.093 351.999 409.093C198.76 409.093 74.5352 424.151 74.5352 442.726C74.5352 461.301 198.76 476.36 351.999 476.36Z" fill="#E6E6E6"></path>
  <path d="M408.637 436.32C408.637 436.32 407.441 442.585 402.161 443.888C396.881 445.19 396.3 450.646 401.333 451.244C406.367 451.843 417.789 443.694 417.789 443.694L415.8 433.961L408.637 436.32Z" fill="#237BFF"></path>
  <path d="M453.869 436.32C453.869 436.32 452.69 442.585 447.392 443.888C442.094 445.19 441.549 450.646 446.565 451.244C451.581 451.843 463.038 443.694 463.038 443.694L461.12 433.961L453.869 436.32Z" fill="#237BFF"></path>
  <path d="M520.326 268.979H153.137V430.107H520.326V268.979Z" fill="#C9C9C9"></path>
  <path d="M520.326 258.19H153.137V283.464H520.326V258.19Z" fill="#E6E6E6"></path>
  <path d="M501.336 352.808H485.777V436.672H501.336V352.808Z" fill="#36B37E"></path>
  <path opacity="0.08" d="M501.336 352.808H485.777V436.672H501.336V352.808Z" fill="black"></path>
  <path d="M171.793 283.464H153.137V430.125H171.793V283.464Z" fill="#E6E6E6"></path>
  <path opacity="0.61" d="M249.655 283.464H171.775V430.125H249.655V283.464Z" fill="#E6E6E6"></path>
  <path d="M520.01 283.464H501.354V430.125H520.01V283.464Z" fill="#E6E6E6"></path>
  <path opacity="0.08" d="M425.691 258.26L397.848 258.084L364.831 309.3C356.267 322.612 351.281 337.907 350.356 353.708C349.432 369.509 352.598 385.281 359.551 399.5L374.546 430.195H520.063L520.397 364.688L521.559 265.16L425.691 258.26Z" fill="black"></path>
  <path d="M229.169 213.821L219.154 258.014H275.65L273.327 252.065H251.415L255.164 215.387L229.169 213.821Z" fill="#A5A5A5"></path>
  <path d="M308.687 127.158H169.066V221.987H308.687V127.158Z" fill="#237BFF"></path>
  <path opacity="0.46" d="M214.966 141.203H184.324V179.201H214.966V141.203Z" fill="white"></path>
  <path opacity="0.46" d="M293.427 141.203H223.361V179.201H293.427V141.203Z" fill="white"></path>
  <path opacity="0.46" d="M293.409 187.016H184.324V207.924H293.409V187.016Z" fill="white"></path>
  <path d="M308.687 213.821H169.066V231.773H308.687V213.821Z" fill="#E6E6E6"></path>
  <path d="M244.059 227.355C246.927 227.355 249.251 225.03 249.251 222.163C249.251 219.295 246.927 216.971 244.059 216.971C241.192 216.971 238.867 219.295 238.867 222.163C238.867 225.03 241.192 227.355 244.059 227.355Z" fill="#A5A5A5"></path>
  <path d="M241.436 294.833H180.012V325.193H241.436V294.833Z" fill="#C9C9C9"></path>
  <path d="M241.436 342.265H180.012V372.625H241.436V342.265Z" fill="#C9C9C9"></path>
  <path d="M209.58 315.249C212.146 315.249 214.226 313.169 214.226 310.603C214.226 308.037 212.146 305.957 209.58 305.957C207.014 305.957 204.934 308.037 204.934 310.603C204.934 313.169 207.014 315.249 209.58 315.249Z" fill="#A5A5A5"></path>
  <path d="M209.58 362.083C212.146 362.083 214.226 360.003 214.226 357.437C214.226 354.87 212.146 352.79 209.58 352.79C207.014 352.79 204.934 354.87 204.934 357.437C204.934 360.003 207.014 362.083 209.58 362.083Z" fill="#A5A5A5"></path>
  <path d="M458.76 305.957C458.76 305.957 441.548 191.785 481.64 172.197C521.733 152.608 586.484 170.701 556.986 311.905L555.525 327.605C554.562 337.719 549.862 347.111 542.344 353.946C534.826 360.78 525.03 364.567 514.869 364.565H433.452C418.509 364.565 413.951 344.113 427.556 337.953C432.231 335.864 437.116 334.283 442.129 333.237C446.272 332.344 450.025 330.158 452.846 326.995C455.668 323.832 457.412 319.855 457.828 315.637L458.76 305.957Z" fill="#36B37E"></path>
  <path d="M431.868 290.697L393.694 329.734C386.024 337.576 380.92 347.565 379.059 358.375C377.199 369.185 378.669 380.305 383.274 390.261L404.799 436.672L415.87 433.961L405.222 392.285C403.115 384.032 403.743 375.319 407.012 367.455C410.281 359.59 416.014 352.999 423.35 348.672L467.015 322.923L431.868 290.697Z" fill="#F4A28C"></path>
  <path d="M431.87 290.697L521.489 295.977C521.489 295.977 521.348 327.763 510.665 334.944C504.751 338.939 482.787 346.841 464.395 353.089C457.161 355.537 451.191 360.749 447.791 367.586C444.39 374.424 443.836 382.329 446.249 389.574L461.121 433.961L448.572 437.288L421.486 384.136C417.622 376.55 416.446 367.878 418.15 359.537C419.854 351.196 424.337 343.68 430.867 338.217L457.9 315.601L431.87 290.697Z" fill="#F4A28C"></path>
  <path d="M235.964 388.888H183.568V430.107H235.964V388.888Z" fill="#C9C9C9"></path>
  <path d="M485.778 423.296H501.354L526.452 451.28H463.039L485.778 423.296Z" fill="#36B37E"></path>
  <path opacity="0.33" d="M485.778 423.296H501.354L526.452 451.28H463.039L485.778 423.296Z" fill="white"></path>
  <path d="M529.761 285.981C529.761 285.981 542.292 317.168 514.062 334.979C485.831 352.79 453.306 347.774 449.804 368.683C449.804 368.683 376.13 339.273 375.884 338.957C375.638 338.64 415.273 285.769 448.273 281.141L532.594 285.981" fill="#24285B"></path>
  <path d="M458.339 123.145C458.339 123.145 457.177 123.691 455.153 124.694C440.528 131.963 372.997 160.316 376.077 187.051C379.597 217.499 463.865 201.606 463.865 201.606L478.878 149.404C478.878 149.404 423.315 170.876 421.696 167.004L463.936 132.632" fill="#237BFF"></path>
  <path opacity="0.46" d="M458.339 123.145C458.339 123.145 457.177 123.691 455.153 124.694C440.528 131.963 372.997 160.316 376.077 187.051C379.597 217.499 463.865 201.606 463.865 201.606L478.878 149.404C478.878 149.404 423.315 170.876 421.696 167.004L463.936 132.632" fill="white"></path>
  <path d="M466.929 117.461C467.912 117.948 468.768 118.66 469.428 119.537C470.056 120.412 470.471 121.421 470.639 122.485C470.807 123.548 470.724 124.637 470.396 125.662C469.391 127.998 467.688 129.965 465.521 131.294C465.138 131.625 464.696 131.882 464.218 132.051C463.792 132.163 463.346 132.182 462.912 132.106C462.478 132.03 462.065 131.861 461.702 131.611C460.981 131.133 460.344 130.538 459.818 129.851C459.007 128.723 458.467 127.423 458.241 126.052C458.015 124.682 458.109 123.277 458.516 121.949C459.22 119.573 461.191 116.915 463.796 116.862C464.873 116.812 465.946 117.017 466.929 117.461Z" fill="#F4A28C"></path>
  <path d="M508.64 144.828C506.035 141.713 500.632 133.547 500.509 119.52L489.28 121.526C489.28 121.526 487.52 142.646 482.627 147.768L482.733 147.873L508.64 144.828Z" fill="#F4A28C"></path>
  <path opacity="0.09" d="M508.64 144.828C506.035 141.713 500.632 133.547 500.509 119.52L489.28 121.526C489.28 121.526 487.52 142.646 482.627 147.768L482.733 147.873L508.64 144.828Z" fill="black"></path>
  <path d="M480.779 104.894C480.779 104.894 481.166 130.15 494.437 131.03C507.707 131.91 503.026 103.381 503.026 103.381C503.026 103.381 501.178 88.3501 493.346 87.3645C485.514 86.3789 477.083 87.0125 480.779 104.894Z" fill="#F4A28C"></path>
  <path d="M481.273 110.72C481.273 110.72 474.233 109.4 475.06 112.849C475.887 116.299 475.201 121.051 482.769 118.129L481.273 110.72Z" fill="#F4A28C"></path>
  <path d="M501.951 106.989C501.951 106.989 509.713 104.243 509.66 107.763C509.607 111.283 509.942 115.912 501.951 114.521V106.989Z" fill="#F4A28C"></path>
  <path d="M480.338 109.963C480.569 110.15 480.843 110.275 481.136 110.328C481.428 110.38 481.729 110.357 482.01 110.262C482.787 109.903 483.411 109.279 483.77 108.502C485.734 105.037 486.542 101.035 486.076 97.0797C487.151 99.7799 488.674 102.279 490.581 104.472C492.488 106.669 495.179 108.034 498.079 108.273C506.703 108.502 505.436 98.8573 504.362 93.0845C503.676 89.3005 502.479 85.0061 499.082 82.6829C497.698 81.7811 496.041 81.3949 494.401 81.5917C492.306 81.5917 490.282 80.9757 488.17 81.0813C485.747 81.1419 483.41 81.995 481.517 83.5101C480.035 84.8951 478.886 86.598 478.156 88.4909C475.75 94.5683 475.845 101.35 478.42 107.358C478.827 108.375 479.488 109.272 480.338 109.963Z" fill="#24285B"></path>
  <path d="M538.929 232.001C533.649 250.253 527.612 268.293 522.596 282.267C492.289 283.147 449.345 291.525 448.465 281.545C447.972 276.142 455.417 276.635 453.27 269.225C452.02 264.808 447.233 243.741 445.121 238.777C433.681 211.709 440.017 182.774 453.058 165.403C474.724 136.521 515.327 134.128 542.818 149.563C556.282 157.025 549.454 195.024 538.929 232.001Z" fill="#237BFF"></path>
  <path d="M484.703 143.262C483.383 144.142 466.787 182.492 476.519 232.177C476.519 232.177 490.758 164.259 505.102 139.566C505.119 139.566 491.867 139.813 484.703 143.262Z" fill="white"></path>
  <path opacity="0.08" d="M543.276 242.28L533.438 281.334L522.596 282.267L448.5 288.603C448.007 283.217 455.417 276.635 453.27 269.155C479.969 264.614 512.054 257.592 500.121 222.392C486.991 183.672 507.161 156.832 507.161 156.832L538.964 232.001L543.276 242.28Z" fill="black"></path>
  <path d="M506.001 161.46C506.36 158.608 507.318 155.864 508.813 153.407C510.307 150.951 512.304 148.839 514.672 147.208C517.04 145.578 519.726 144.467 522.554 143.948C525.382 143.428 528.288 143.512 531.081 144.195C546.78 148.102 566.492 160.44 569.431 197.452C574.447 260.267 556.653 289.923 556.653 289.923H458.34V277.444L526.645 269.102C526.645 269.102 500.597 204.668 506.001 161.46Z" fill="#237BFF"></path>
  <path opacity="0.46" d="M506.001 161.46C506.36 158.608 507.318 155.864 508.813 153.407C510.307 150.951 512.304 148.839 514.672 147.208C517.04 145.578 519.726 144.467 522.554 143.948C525.382 143.428 528.288 143.512 531.081 144.195C546.78 148.102 566.492 160.44 569.431 197.452C574.447 260.267 556.653 289.923 556.653 289.923H458.34V277.444L526.645 269.102C526.645 269.102 500.597 204.668 506.001 161.46Z" fill="white"></path>
  <path d="M480.023 143.016C480.023 143.016 472.139 144.459 469.27 140.2C466.401 135.94 463.022 113.659 462.687 111.424C462.353 109.188 468.319 101.796 470.343 103.222C472.367 104.648 476.257 112.532 474.673 114.081C472.993 115.476 471.183 116.708 469.27 117.76C469.27 117.76 470.466 130.924 473.089 132.825C475.711 134.726 480.006 131.523 481.449 133.969C482.892 136.416 484.001 142.681 480.023 143.016Z" fill="#36B37E"></path>
  <path d="M475.077 139.408C474.866 152.309 477.066 165.051 478.844 177.758C480.199 187.473 481.941 200.251 477.682 209.438C475.922 212.958 471.364 216.355 468.407 213.715C466.172 211.691 467.439 207.467 470.167 206.341C471.618 205.897 473.17 205.91 474.615 206.375C476.059 206.841 477.326 207.738 478.245 208.945C480.021 211.407 481.169 214.264 481.589 217.27C483.054 223.452 483.216 229.872 482.064 236.12C480.861 242.408 477.216 247.964 471.927 251.572C470.357 252.677 468.478 253.257 466.559 253.227C465.604 253.185 464.689 252.837 463.947 252.235C463.206 251.633 462.677 250.808 462.44 249.883C462.296 248.778 462.559 247.658 463.18 246.732C465.82 242.368 472.86 242.297 476.415 245.941C479.97 249.584 480.234 255.603 478.069 260.232C475.676 264.754 472.003 268.47 467.509 270.915C459.554 275.72 444.805 281.756 435.336 279.451C431.095 278.43 427.592 275.491 424.301 272.604C421.468 270.123 418.669 267.589 415.906 265.037C413.143 262.485 410.168 259.757 407.106 257.24C396.59 248.84 383.934 243.548 370.568 241.963" stroke="#24285B" stroke-width="1.015" stroke-miterlimit="10"></path>
  <path d="M375.76 258.19H328.188L332.728 235.627H371.202L375.76 258.19Z" fill="#36B37E"></path>
  <path d="M344.081 228.939H337.393V235.627H344.081V228.939Z" fill="#36B37E"></path>
  <path d="M366.538 228.939H359.85V235.627H366.538V228.939Z" fill="#36B37E"></path>
  <path d="M458.004 279.257C458.004 279.257 421.044 268.539 425.444 289.448H458.004V279.257Z" fill="#F4A28C"></path>
  <path d="M400.488 54.2413H361.223C344.757 54.2413 331.408 67.5897 331.408 84.0557V84.0733C331.408 100.539 344.757 113.888 361.223 113.888H400.488C416.954 113.888 430.303 100.539 430.303 84.0733V84.0557C430.303 67.5897 416.954 54.2413 400.488 54.2413Z" fill="#E6E6E6"></path>
  <path d="M398.922 111.072C398.922 111.072 408.197 123.902 426.923 120.118C426.923 120.118 410.344 120.593 405.663 106.038L398.922 111.072Z" fill="#E6E6E6"></path>
  <path opacity="0.08" d="M361.134 89.9165C364.371 89.9165 366.995 87.2925 366.995 84.0557C366.995 80.8189 364.371 78.1949 361.134 78.1949C357.897 78.1949 355.273 80.8189 355.273 84.0557C355.273 87.2925 357.897 89.9165 361.134 89.9165Z" fill="black"></path>
  <path opacity="0.08" d="M380.847 89.9165C384.084 89.9165 386.708 87.2925 386.708 84.0557C386.708 80.8189 384.084 78.1949 380.847 78.1949C377.61 78.1949 374.986 80.8189 374.986 84.0557C374.986 87.2925 377.61 89.9165 380.847 89.9165Z" fill="black"></path>
  <path opacity="0.08" d="M400.576 89.9165C403.812 89.9165 406.436 87.2925 406.436 84.0557C406.436 80.8189 403.812 78.1949 400.576 78.1949C397.339 78.1949 394.715 80.8189 394.715 84.0557C394.715 87.2925 397.339 89.9165 400.576 89.9165Z" fill="black"></path>
</svg>
